Coordinates
version=1
nRows=60
nColumns=12
inDegrees=yes

Units are S.I. units (second, meters, Newtons, ...)
Angles are in degrees

endheader
time	SC_y	SC_z	SC_x	AC_y	AC_z	AC_x	GH_y	GH_z	GH_yy	EL_x	PS_y
       0.0              -29.13         -3.187          81.49          62.48         -15.99          14.08          -7.32           4.24          19.27          16.62          15.97
   0.02314              -29.13         -3.187          81.49          62.48         -15.99          14.08         -7.337          4.248          19.27          16.63          15.97
   0.04628              -29.13         -3.186          81.49          62.48         -15.99          14.08         -7.354          4.256          19.26          16.64          15.98
   0.06941              -29.12         -3.186          81.49          62.47         -15.99          14.08         -7.373          4.264          19.25          16.65          15.98
   0.09255              -29.12         -3.185          81.49          62.47         -15.98          14.07         -7.392          4.273          19.24          16.66          15.99
    0.1157              -29.12         -3.185          81.48          62.46         -15.98          14.07         -7.413          4.283          19.23          16.67           16.0
    0.1388              -29.12         -3.184          81.48          62.46         -15.98          14.07         -7.436          4.294          19.22          16.68           16.0
     0.162              -29.12         -3.184          81.48          62.45         -15.98          14.06          -7.46          4.305          19.21          16.69          16.01
    0.1851              -29.11         -3.183          81.48          62.45         -15.97          14.06         -7.486          4.316           19.2          16.71          16.02
    0.2082              -29.11         -3.183          81.47          62.44         -15.97          14.06         -7.513          4.329          19.19          16.72          16.03
    0.2314              -29.11         -3.182          81.47          62.44         -15.97          14.05         -7.543          4.343          19.18          16.73          16.04
    0.2545              -29.11         -3.182          81.47          62.43         -15.96          14.05         -7.575          4.358          19.16          16.75          16.05
    0.2777               -29.1         -3.181          81.47          62.42         -15.96          14.05         -7.609          4.373          19.15          16.77          16.06
    0.3008               -29.1          -3.18          81.46          62.41         -15.95          14.04         -7.646          4.391          19.13          16.78          16.07
    0.3239               -29.1         -3.179          81.46           62.4         -15.95          14.03         -7.686          4.409          19.12           16.8          16.09
    0.3471              -29.09         -3.178          81.45          62.39         -15.94          14.03          -7.73          4.429           19.1          16.82           16.1
    0.3702              -29.09         -3.177          81.45          62.38         -15.94          14.02         -7.777          4.451          19.08          16.85          16.12
    0.3933              -29.09         -3.176          81.44          62.37         -15.93          14.02         -7.829          4.475          19.05          16.87          16.13
    0.4165              -29.08         -3.175          81.44          62.36         -15.93          14.01         -7.885          4.501          19.03           16.9          16.15
    0.4396              -29.08         -3.174          81.43          62.35         -15.92           14.0         -7.947          4.529           19.0          16.93          16.17
    0.4628              -29.07         -3.172          81.43          62.33         -15.91          13.99         -8.015          4.561          18.98          16.96          16.19
    0.4859              -29.06         -3.171          81.42          62.32          -15.9          13.98          -8.09          4.595          18.94           17.0          16.22
     0.509              -29.06         -3.169          81.41           62.3         -15.89          13.97         -8.172          4.633          18.91          17.04          16.24
    0.5322              -29.05         -3.167           81.4          62.28         -15.88          13.96         -8.263          4.675          18.87          17.08          16.27
    0.5553              -29.04         -3.165          81.39          62.26         -15.87          13.95         -8.365          4.722          18.83          17.13          16.31
    0.5785              -29.03         -3.162          81.38          62.23         -15.86          13.93         -8.478          4.774          18.78          17.19          16.34
    0.6016              -29.02          -3.16          81.37          62.21         -15.85          13.91         -8.605          4.833          18.72          17.25          16.39
    0.6247              -29.01         -3.157          81.36          62.17         -15.83           13.9         -8.747          4.898          18.66          17.32          16.43
    0.6479              -28.99         -3.153          81.34          62.14         -15.81          13.88         -8.909          4.973          18.59           17.4          16.48
     0.671              -28.98         -3.149          81.33           62.1         -15.79          13.85         -9.092          5.057          18.51          17.49          16.54
    0.6941              -28.96         -3.145          81.31          62.05         -15.77          13.82         -9.301          5.153          18.43          17.59          16.61
    0.7173              -28.94          -3.14          81.28           62.0         -15.74          13.79          -9.54          5.264          18.32           17.7          16.69
    0.7404              -28.92         -3.134          81.26          61.94         -15.71          13.76         -9.817          5.392           18.2          17.84          16.78
    0.7636              -28.89         -3.127          81.23          61.87         -15.67          13.71         -10.14           5.54          18.07           18.0          16.89
    0.7867              -28.86         -3.119          81.19          61.79         -15.63          13.66         -10.52          5.714          17.91          18.18          17.01
    0.8098              -28.82          -3.11          81.15           61.7         -15.58          13.61         -10.96          5.918          17.72           18.4          17.15
     0.833              -28.78         -3.098           81.1          61.58         -15.52          13.54         -11.49          6.161          17.49          18.65          17.32
    0.8561              -28.72         -3.085          81.04          61.44         -15.45          13.45         -12.12          6.453          17.22          18.96          17.53
    0.8793              -28.66         -3.069          80.97          61.28         -15.36          13.35         -12.88          6.805          16.89          19.33          17.78
    0.9024              -28.58         -3.049          80.88          61.08         -15.25          13.23         -13.82          7.236          16.49          19.79          18.08
    0.9255              -28.48         -3.024          80.77          60.83         -15.12          13.08         -14.97          7.768           16.0          20.35          18.46
    0.9487              -28.36         -2.994          80.64          60.52         -14.96          12.89         -16.41          8.431          15.39          21.05          18.93
    0.9718              -28.21         -2.955          80.47          60.12         -14.75          12.66         -18.22          9.266          14.61          21.93          19.52
    0.9949              -28.02         -2.906          80.25          59.63         -14.49          12.36         -20.52          10.33          13.63          23.05          20.27
     1.018              -27.77         -2.843          79.97          58.99         -14.16          11.97         -23.47          11.69          12.37          24.48          21.23
     1.041              -27.45         -2.763          79.61          58.17         -13.73          11.47         -27.25          13.43          10.75          26.32          22.46
     1.064              -27.04          -2.66          79.16          57.12         -13.18          10.84         -32.08          15.66          8.689          28.67          24.03
     1.087              -26.53         -2.531          78.59          55.81         -12.49          10.05         -38.15          18.46          6.092          31.63          26.01
     1.111              -25.91         -2.374          77.89          54.21         -11.65          9.079         -45.55          21.87          2.929          35.23          28.42
     1.134              -25.19         -2.191          77.08          52.35         -10.68          7.956         -54.13          25.83        -0.7387           39.4          31.22
     1.157              -24.41         -1.994           76.2          50.34         -9.625           6.74         -63.42          30.11          -4.71          43.92          34.25
      1.18              -23.62         -1.796          75.33          48.33         -8.571          5.524         -72.71          34.39          -8.68          48.44          37.27
     1.203               -22.9         -1.613          74.52          46.47         -7.598          4.401         -81.28          38.35         -12.35          52.61          40.07
     1.226              -22.28         -1.456          73.82          44.87         -6.758          3.433         -88.68          41.76         -15.51          56.21          42.48
     1.249              -21.77         -1.327          73.25          43.55         -6.069          2.638         -94.76          44.56         -18.11          59.17          44.46
     1.273              -21.36         -1.224          72.79          42.51         -5.521          2.006         -99.59          46.79         -20.17          61.52          46.03
     1.296              -21.04         -1.144          72.44          41.69         -5.092          1.511         -103.4          48.53         -21.79          63.36          47.27
     1.319               -20.8         -1.081          72.16          41.05         -4.757          1.125         -106.3          49.89         -23.05          64.79          48.23
     1.342               -20.6         -1.032          71.94          40.55         -4.496         0.8237         -108.6          50.96         -24.03          65.91          48.98
     1.365              -20.45        -0.9934          71.77          40.16         -4.291         0.5866         -110.4          51.79         -24.81          66.79          49.57
